<?xml version="1.0" encoding="UTF-8"?>
<!--Generator: Apple Native CoreSVG 326-->
<!DOCTYPE svg
PUBLIC "-//W3C//DTD SVG 1.1//EN"
       "http://www.w3.org/Graphics/SVG/1.1/DTD/svg11.dtd">
<svg version="1.1" xmlns="http://www.w3.org/2000/svg" xmlns:xlink="http://www.w3.org/1999/xlink" viewBox="0 0 99.6094 99.6582">
 <g>
  <rect height="99.6582" opacity="0" width="99.6094" x="0" y="0"/>
  <path d="M99.6094 49.8047C99.6094 77.2461 77.2949 99.6094 49.8047 99.6094C22.3633 99.6094 0 77.2461 0 49.8047C0 22.3145 22.3633 0 49.8047 0C77.2949 0 99.6094 22.3145 99.6094 49.8047ZM35.5957 27.0508C34.2773 27.0508 33.5449 27.9297 33.5449 29.3457L33.5449 29.6875C33.5449 31.0547 34.2773 31.9336 35.5957 31.9336L43.7988 31.9336C48.7793 31.9336 52.7832 33.9844 53.5156 38.916L35.3516 38.916C34.375 38.916 33.5938 39.6484 33.5938 40.5762C33.5938 41.5039 34.375 42.2363 35.3516 42.2363L53.5156 42.2363C52.832 47.3145 48.9258 49.1699 43.7988 49.1699L36.8164 49.1699C34.8633 49.1699 33.6914 50.3418 33.6914 52.002L33.6914 52.1484C33.6914 53.6133 34.2773 54.4922 35.4492 55.5176L52.6855 71.6309C53.5156 72.4121 54.1992 73.0469 55.5176 73.0469C56.9824 73.0469 58.1055 71.875 58.1055 70.459C58.1055 69.4824 57.6172 68.7988 56.8848 68.1152L41.8945 54.1016L44.4824 54.1016C52.4414 54.1016 58.4961 49.9512 59.5703 42.2363L63.4766 42.2363C64.502 42.2363 65.1855 41.5039 65.1855 40.5762C65.1855 39.6484 64.502 38.916 63.4766 38.916L59.668 38.916C59.375 35.5957 58.0078 32.5195 55.4199 30.4199L63.4766 30.4199C64.502 30.4199 65.1855 29.6387 65.1855 28.7598C65.1855 27.7832 64.502 27.0508 63.4766 27.0508Z" fill="#98989d"/>
 </g>
</svg>
