<?xml version="1.0" encoding="UTF-8"?>
<!--Generator: Apple Native CoreSVG 326-->
<!DOCTYPE svg
PUBLIC "-//W3C//DTD SVG 1.1//EN"
       "http://www.w3.org/Graphics/SVG/1.1/DTD/svg11.dtd">
<svg version="1.1" xmlns="http://www.w3.org/2000/svg" xmlns:xlink="http://www.w3.org/1999/xlink" viewBox="0 0 99.6094 99.6582">
 <g>
  <rect height="99.6582" opacity="0" width="99.6094" x="0" y="0"/>
  <path d="M99.6094 49.8047C99.6094 77.2461 77.2949 99.6094 49.8047 99.6094C22.3633 99.6094 0 77.2461 0 49.8047C0 22.3145 22.3633 0 49.8047 0C77.2949 0 99.6094 22.3145 99.6094 49.8047ZM68.1641 25.1465L20.6055 47.7051C17.334 49.2676 17.8711 53.9551 22.2656 53.9551L43.3594 54.0039C44.3359 54.0039 44.9707 54.6387 44.9707 55.6152L44.9707 76.4648C44.9707 80.957 49.7559 81.3965 51.2695 78.1738L73.6328 30.5176C75.4395 26.6113 72.1191 23.291 68.1641 25.1465Z" fill="#98989d"/>
 </g>
</svg>
