<?xml version="1.0" encoding="UTF-8"?>
<!--Generator: Apple Native CoreSVG 326-->
<!DOCTYPE svg
PUBLIC "-//W3C//DTD SVG 1.1//EN"
       "http://www.w3.org/Graphics/SVG/1.1/DTD/svg11.dtd">
<svg version="1.1" xmlns="http://www.w3.org/2000/svg" xmlns:xlink="http://www.w3.org/1999/xlink" viewBox="0 0 91.0156 91.1621">
 <g>
  <rect height="91.1621" opacity="0" width="91.0156" x="0" y="0"/>
  <path d="M25 65.7715C39.3555 80.1758 56.543 91.1133 70.3613 91.1133C76.8555 91.1133 82.5195 88.5254 86.2305 84.375C89.7949 80.3711 91.0156 77.3926 91.0156 74.7559C91.0156 72.7051 89.7461 70.8008 86.5234 68.5547L74.6094 60.0098C71.6309 57.9102 70.3125 57.5195 68.5547 57.5195C67.041 57.5195 65.7715 57.8125 63.2324 59.1797L55.4199 63.4766C54.4922 64.0137 54.1016 64.1113 53.418 64.1113C52.4902 64.1113 51.8555 63.8672 50.9277 63.4766C47.2168 61.7676 41.9922 57.666 37.3535 53.0273C32.7148 48.3887 29.1016 43.6523 27.2461 39.9902C27.002 39.502 26.709 38.7207 26.709 37.9395C26.709 37.3047 27.0508 36.7676 27.4414 36.084L32.0312 28.2227C33.3008 26.0742 33.6426 24.9023 33.6426 23.2422C33.6426 21.3379 33.0078 19.2871 31.2012 16.6992L22.998 5.27344C20.6543 2.00195 18.8965 0 16.2598 0C12.9883 0 9.0332 2.49023 6.20117 5.22461C2.14844 9.13086 0 14.5996 0 20.752C0 34.668 10.6934 51.5137 25 65.7715Z" fill="#98989d"/>
 </g>
</svg>
