<?xml version="1.0" encoding="UTF-8"?>
<!--Generator: Apple Native CoreSVG 326-->
<!DOCTYPE svg
PUBLIC "-//W3C//DTD SVG 1.1//EN"
       "http://www.w3.org/Graphics/SVG/1.1/DTD/svg11.dtd">
<svg version="1.1" xmlns="http://www.w3.org/2000/svg" xmlns:xlink="http://www.w3.org/1999/xlink" viewBox="0 0 184.033 101.416">
 <g>
  <rect height="101.416" opacity="0" width="184.033" x="0" y="0"/>
  <path d="M56.978 64.1416C48.8618 71.1913 44.2871 80.1985 44.2871 88.2812C44.2871 90.6556 44.8721 92.8709 45.9927 94.7754L8.59375 94.7754C2.39258 94.7754 0 92.334 0 87.9395C0 74.4141 13.7695 58.1543 35.791 58.1543C44.1434 58.1543 51.3086 60.4933 56.978 64.1416ZM52.7832 31.8848C52.7832 42.4805 44.9219 50.6836 35.791 50.6836C26.709 50.6836 18.7988 42.4805 18.7988 31.9824C18.7988 21.582 26.7578 13.623 35.791 13.623C44.873 13.623 52.7832 21.3867 52.7832 31.8848Z" fill="white" fill-opacity="0.85"/>
  <path d="M184.033 87.9395C184.033 92.334 181.641 94.7754 175.439 94.7754L138.1 94.7754C139.215 92.8709 139.795 90.6556 139.795 88.2812C139.795 80.1926 135.225 71.1782 127.105 64.1259C132.77 60.4869 139.932 58.1543 148.291 58.1543C170.312 58.1543 184.033 74.4141 184.033 87.9395ZM165.283 31.8848C165.283 42.4805 157.422 50.6836 148.291 50.6836C139.209 50.6836 131.25 42.4805 131.25 31.9824C131.25 21.582 139.209 13.623 148.291 13.623C157.373 13.623 165.283 21.3867 165.283 31.8848Z" fill="white" fill-opacity="0.85"/>
  <path d="M92.0898 49.5605C102.539 49.5605 111.621 40.1855 111.621 27.9785C111.621 15.918 102.539 6.98242 92.0898 6.98242C81.6406 6.98242 72.5586 16.1133 72.5586 28.0762C72.5586 40.1855 81.5918 49.5605 92.0898 49.5605ZM59.2773 94.7754L124.805 94.7754C130.029 94.7754 133.154 92.334 133.154 88.2812C133.154 75.6836 117.383 58.3008 92.041 58.3008C66.748 58.3008 50.9766 75.6836 50.9766 88.2812C50.9766 92.334 54.1016 94.7754 59.2773 94.7754Z" fill="white" fill-opacity="0.85"/>
 </g>
</svg>
