<?xml version="1.0" encoding="UTF-8"?>
<!--Generator: Apple Native CoreSVG 326-->
<!DOCTYPE svg
PUBLIC "-//W3C//DTD SVG 1.1//EN"
       "http://www.w3.org/Graphics/SVG/1.1/DTD/svg11.dtd">
<svg version="1.1" xmlns="http://www.w3.org/2000/svg" xmlns:xlink="http://www.w3.org/1999/xlink" viewBox="0 0 119.922 96.2402">
 <g>
  <rect height="96.2402" opacity="0" width="119.922" x="0" y="0"/>
  <path d="M96.9238 37.4512C100.244 37.4512 102.979 34.7168 102.979 31.3965C102.979 28.0273 100.244 25.3418 96.9238 25.3418C93.5547 25.3418 90.8691 28.0273 90.8691 31.3965C90.8691 34.7168 93.5547 37.4512 96.9238 37.4512ZM15.332 93.1152L104.59 93.1152C114.746 93.1152 119.922 88.0371 119.922 77.9785L119.922 26.8555C119.922 16.7969 114.746 11.7676 104.59 11.7676L90.625 11.7676C86.7676 11.7676 85.5957 10.9863 83.3984 8.54492L79.4922 4.15039C77.0508 1.46484 74.5605 0 69.5312 0L50.0488 0C45.0195 0 42.5293 1.46484 40.0879 4.15039L36.1816 8.54492C33.9844 10.9375 32.7637 11.7676 28.9551 11.7676L15.332 11.7676C5.12695 11.7676 0 16.7969 0 26.8555L0 77.9785C0 88.0371 5.12695 93.1152 15.332 93.1152ZM15.4297 85.2539C10.6445 85.2539 7.86133 82.666 7.86133 77.5879L7.86133 27.2949C7.86133 22.2168 10.6445 19.6289 15.4297 19.6289L30.9082 19.6289C35.3027 19.6289 37.6953 18.7988 40.1367 16.0645L43.9453 11.7676C46.7285 8.64258 48.1934 7.86133 52.4902 7.86133L67.0898 7.86133C71.3867 7.86133 72.8516 8.64258 75.6348 11.7676L79.4434 16.0645C81.8848 18.7988 84.2773 19.6289 88.6719 19.6289L104.443 19.6289C109.277 19.6289 112.061 22.2168 112.061 27.2949L112.061 77.5879C112.061 82.666 109.277 85.2539 104.443 85.2539ZM59.9609 78.2227C74.707 78.2227 86.5723 66.4062 86.5723 51.5137C86.5723 36.6699 74.7559 24.8535 59.9609 24.8535C45.166 24.8535 33.3008 36.6699 33.3008 51.5137C33.3008 66.4062 45.166 78.2227 59.9609 78.2227ZM59.9609 70.8008C49.3652 70.8008 40.6738 62.2559 40.6738 51.5137C40.6738 40.8203 49.3164 32.2266 59.9609 32.2266C70.6055 32.2266 79.1992 40.8203 79.1992 51.5137C79.1992 62.2559 70.6055 70.8008 59.9609 70.8008Z" fill="black"/>
 </g>
</svg>
